<svg width="800" height="200" viewBox="0 0 800 300" xmlns="http://www.w3.org/2000/svg">
  <!-- Lightning bolt path -->
  <path d="M 142.335 18 C 101.822 101.397, 72 163.088, 72 163.498 C 72 163.774, 84.825 164, 100.500 164 
           C 122.652 164, 128.992 164.278, 128.965 165.250 C 128.945 165.938, 124.489 193.725, 119.062 227 
           C 113.635 260.275, 109.376 287.687, 109.597 287.917 C 109.819 288.146, 110.188 288.145, 110.419 287.915 
           C 111.380 286.954, 187 130.189, 187 129.158 C 187 128.354, 178.880 127.954, 158.734 127.765 
           L 130.468 127.500 140.231 67.500 C 145.600 34.500, 149.856 6.600, 149.687 5.500 C 149.496 4.261, 146.700 9.015, 142.335 18 
           M 107.105 34.546 C 74.162 41.693, 45.700 62.950, 30.177 92 C 21.203 108.794, 17 126.249, 17 146.724 
           C 17 178.531, 28.848 206.259, 51.815 228.201 C 64.356 240.183, 79.185 249.178, 94 253.790 
           C 104.787 257.147, 104.721 257.147, 105.399 253.755 C 106.726 247.121, 106.346 246.324, 101.250 245.043 
           C 88.061 241.727, 69.998 231.082, 58.274 219.715 C 40.117 202.110, 28.924 177.418, 27.336 151.460 
           C 25.214 116.777, 43.476 79.707, 72.167 60.457 C 83.616 52.776, 97.780 47.451, 117.159 43.544 
           C 119.061 43.160, 120.413 41.779, 121.909 38.688 C 123.059 36.312, 124 34.061, 124 33.684 
           C 124 32.552, 113.932 33.065, 107.105 34.546 
           M 154.425 37.444 C 154.105 38.717, 153.991 41.044, 154.172 42.615 C 154.471 45.218, 155.256 45.744, 163 48.532 
           C 195.347 60.178, 218.738 85.098, 228.674 118.500 C 231.128 126.747, 231.358 129.007, 231.423 145.500 
           C 231.485 161.270, 231.209 164.553, 229.200 172 C 225.832 184.484, 217.417 200.964, 209.286 211 
           C 192.854 231.283, 171.515 243.260, 142.258 248.623 C 140.756 248.898, 139.158 250.729, 137.413 254.172 
           L 134.809 259.311 143.154 258.709 C 170.855 256.712, 201.744 239.067, 220.037 214.790 
           C 254.032 169.676, 249.730 105.915, 210 66.009 C 196.169 52.117, 179.116 41.804, 162.253 37.136 
           L 155.006 35.129 154.425 37.444" 
        fill="#00A651" fill-rule="evenodd"/>

  <!-- EDSP Text -->
  <text x="280" y="120" font-family="Arial Black, sans-serif" font-size="120" fill="black" letter-spacing="5">EDSP</text>

  <!-- SOLUTIONS Text -->
  <text x="280" y="180" font-family="Arial, sans-serif" font-size="60" fill="#00A651" letter-spacing="10">SOLUTIONS</text>

</svg>
